<svg width="113" height="552" viewBox="0 0 113 552" fill="none" xmlns="http://www.w3.org/2000/svg">
<path d="M112.336 192.132C112.336 161.36 87.3979 136.414 56.635 136.414C25.8722 136.414 0.934052 161.36 0.934052 192.132V495.323C0.934052 526.095 25.8722 551.041 56.635 551.041C87.3979 551.041 112.336 526.095 112.336 495.323V192.132Z" fill="white"/>
<path d="M56.652 540.839C31.5738 540.839 11.17 520.538 11.17 495.562V191.894C11.17 166.918 31.5738 146.616 56.652 146.616C81.7303 146.616 102.134 166.918 102.134 191.894V495.528C102.134 520.504 81.7303 540.805 56.652 540.805V540.839Z" fill="#007EE5"/>
<path d="M56.5838 223.591C40.6838 223.591 27.7864 210.66 27.7864 194.794C27.7864 178.928 40.7179 165.996 56.5838 165.996C72.4496 165.996 85.3811 178.928 85.3811 194.794C85.3811 210.66 72.4496 223.591 56.5838 223.591ZM56.5838 168.521C42.1169 168.521 30.3454 180.293 30.3454 194.76C30.3454 209.227 42.1169 220.998 56.5838 220.998C71.0507 220.998 82.8221 209.227 82.8221 194.76C82.8221 180.293 71.0507 168.521 56.5838 168.521Z" fill="white"/>
<path d="M57.8803 265.934C57.4709 265.9 57.0273 265.9 56.5838 265.9C56.1743 265.9 55.7308 265.9 55.3213 265.934C40.0355 266.582 27.7864 279.275 27.7864 294.731C27.7864 310.188 40.0355 322.846 55.3213 323.495C55.7308 323.495 56.1743 323.495 56.5838 323.495C57.0273 323.495 57.4709 323.495 57.8803 323.495C73.2002 322.812 85.4152 310.154 85.4152 294.731C85.4152 279.309 73.2002 266.616 57.8803 265.934ZM57.8803 320.936C57.4368 320.936 57.0273 320.936 56.5838 320.936C56.1743 320.936 55.7649 320.936 55.3213 320.936C41.4345 320.287 30.3454 308.789 30.3454 294.731C30.3454 280.674 41.4345 269.141 55.3213 268.493C55.7649 268.459 56.1743 268.459 56.5838 268.459C57.0273 268.459 57.4368 268.459 57.8803 268.493C71.7672 269.175 82.8562 280.708 82.8562 294.731C82.8562 308.755 71.7672 320.253 57.8803 320.936Z" fill="white"/>
<path d="M68.6282 197.421C68.1847 196.261 67.707 195.135 67.0587 194.111C65.0797 190.904 61.1901 187.048 57.9828 185.07C56.9592 184.421 55.8332 183.909 54.6731 183.5C53.0695 182.92 51.5 182.203 49.7257 182.203C48.4633 182.203 47.3373 182.579 46.2455 183.193C45.3925 183.636 44.3348 184.251 43.9253 185.172C43.6524 185.786 43.3453 187.117 43.3453 187.799C43.3453 187.936 43.3453 188.072 43.4135 188.209C43.55 188.584 44.4712 188.993 44.8466 189.198C45.9043 189.812 47.0302 190.392 48.088 191.006C48.5656 191.313 49.1798 191.859 49.7598 191.859C50.8858 191.859 52.5918 188.447 53.5813 188.447C54.0931 188.447 54.7755 188.925 55.2191 189.198C58.6652 191.075 61.0195 193.463 62.9302 196.875C63.2031 197.353 63.6808 198.001 63.6808 198.513C63.6808 199.536 60.2688 201.208 60.2688 202.368C60.2688 202.948 60.8489 203.563 61.1218 204.04C61.7701 205.098 62.3501 206.19 62.9643 207.248C63.1349 207.657 63.5443 208.578 63.9538 208.681C64.0903 208.749 64.2268 208.749 64.3632 208.749C65.0115 208.749 66.3422 208.442 66.9564 208.169C67.8776 207.759 68.4918 206.702 68.9694 205.849C69.5836 204.757 69.9248 203.631 69.9248 202.368C69.9248 200.594 69.2083 199.025 68.6282 197.421Z" fill="white"/>
<path d="M56.5838 521.459C40.6838 521.459 27.7864 508.528 27.7864 492.662C27.7864 476.796 40.7179 463.865 56.5838 463.865C72.4496 463.865 85.3811 476.796 85.3811 492.662C85.3811 508.528 72.4496 521.459 56.5838 521.459ZM56.5838 466.389C42.1169 466.389 30.3454 478.161 30.3454 492.628C30.3454 507.095 42.1169 518.866 56.5838 518.866C71.0507 518.866 82.8221 507.095 82.8221 492.628C82.8221 478.161 71.0507 466.389 56.5838 466.389Z" fill="white"/>
<path d="M56.6521 484.132L45.8019 493.071V502.215C45.8019 502.864 46.3478 503.41 46.9961 503.41H54.2296V496.176H59.0405V503.41H66.274C66.9222 503.41 67.4682 502.864 67.4682 502.215V493.071L56.6521 484.132ZM71.5967 491.024L58.051 479.764C57.2321 479.116 55.9697 479.116 55.1508 479.764L50.5787 483.62V479.935C50.5787 479.628 50.3058 479.355 49.9646 479.355H46.3478C46.0408 479.355 45.7678 479.628 45.7678 479.935V487.612L41.6393 491.024C41.3663 491.229 41.3322 491.638 41.571 491.877L42.7311 493.276C42.7311 493.276 42.9699 493.481 43.1064 493.515H43.1747C43.1747 493.515 43.4476 493.481 43.55 493.344L56.5839 482.494L69.5836 493.344C69.5836 493.344 69.8907 493.515 70.0613 493.515C70.2319 493.481 70.3683 493.412 70.4366 493.276L71.6308 491.877C71.8355 491.638 71.8014 491.229 71.5626 491.024H71.5967Z" fill="white"/>
<g clip-path="url(#clip0_0_45)">
<path d="M56.6031 276.012C46.4493 276.012 38.1625 284.3 38.1625 294.453C38.1625 304.607 46.4499 312.894 56.6031 312.894C66.7569 312.894 75.0438 304.606 75.0438 294.453C75.0438 284.299 66.7564 276.012 56.6031 276.012ZM51.1025 279.131C49.8373 280.739 48.9179 282.728 48.2817 284.657H43.6098C45.5016 282.154 48.0985 280.213 51.1025 279.131ZM42.229 286.81H47.6702C47.1814 288.859 46.8928 291.082 46.8235 293.373H40.3603C40.5154 291.017 41.1737 288.789 42.229 286.81ZM42.229 302.089C41.1737 300.11 40.5154 297.89 40.3603 295.534H46.8235C46.8928 297.824 47.1814 300.04 47.6702 302.089H42.229ZM43.6098 304.25H48.2816C48.9176 306.178 49.8371 308.167 51.1025 309.775C48.0985 308.694 45.5016 306.753 43.6098 304.25ZM55.5226 310.549C53.1101 309.738 51.4468 306.641 50.5683 304.25H55.5226V310.549ZM55.5226 302.089H49.8957C49.3706 300.069 49.0594 297.847 48.9854 295.534H55.5226V302.089ZM55.5226 293.373H48.9854C49.0595 291.059 49.3707 288.837 49.8957 286.818H55.5226V293.373ZM55.5226 284.657H50.5683C51.4467 282.265 53.1101 279.168 55.5226 278.357V284.657ZM70.9773 286.818C72.0326 288.796 72.6908 291.017 72.846 293.373H66.3827C66.3134 291.082 66.0248 288.866 65.536 286.818H70.9773ZM69.5965 284.657H64.9247C64.2886 282.729 63.3692 280.74 62.1038 279.131C65.1078 280.213 67.7047 282.154 69.5965 284.657ZM57.6836 278.357C60.0961 279.168 61.7594 282.265 62.638 284.657H57.6836V278.357ZM57.6836 286.818H63.3105C63.8357 288.837 64.1469 291.059 64.2208 293.373H57.6836V286.818ZM57.6836 295.526H64.2208C64.1468 297.84 63.8356 300.069 63.3105 302.089H57.6836V295.526ZM57.6836 310.549V304.242H62.638C61.7595 306.634 60.0961 309.738 57.6836 310.549ZM62.1038 309.775C63.369 308.167 64.2884 306.171 64.9247 304.242H69.5965C67.7047 306.745 65.1078 308.694 62.1038 309.775ZM70.9773 302.089H65.536C66.0248 300.04 66.3134 297.817 66.3827 295.526H72.846C72.6908 297.882 72.0325 300.11 70.9773 302.089Z" fill="white"/>
</g>
<path d="M57.3686 0.241161H56.5839C31.9833 0.241161 11.8525 19.9284 11.4089 44.6655V45.4844C11.4089 59.303 17.687 71.7227 27.5136 79.9797C28.1619 79.3997 28.8784 78.8879 29.629 78.4443L43.1406 71.0744C43.5841 70.8356 43.9595 70.5626 44.3348 70.1873C45.4266 69.1637 46.0067 67.7306 46.0067 66.2294V60.736C46.0067 60.736 45.6314 60.2583 45.0513 59.4395C44.8125 59.0983 44.5395 58.6888 44.2665 58.2453C43.5841 57.1193 42.7311 55.6521 42.0146 53.9461C41.5711 52.9225 41.1616 51.8307 40.8204 50.6365C40.7181 50.227 40.6157 49.8176 40.5133 49.4082C39.2509 48.5893 38.3979 47.1904 38.3979 45.6208V39.5816C38.3979 39.2404 38.3979 38.9333 38.5003 38.6262C38.5685 38.3191 38.6709 38.0121 38.8073 37.7391C38.9438 37.4661 39.0803 37.1932 39.285 36.9202C39.4897 36.6814 39.6603 36.4425 39.9333 36.2378V27.5031C39.9333 27.5031 38.1249 13.8892 56.5498 13.8892C74.9746 13.8892 73.1662 27.5031 73.1662 27.5031V36.2378C73.371 36.4425 73.6098 36.6814 73.8145 36.9202C73.9851 37.1591 74.1557 37.432 74.2922 37.7391C74.4287 38.0121 74.4969 38.3191 74.5993 38.6262C74.6675 38.9333 74.7016 39.2745 74.7016 39.5816V45.6208C74.7016 46.8833 74.1898 48.0434 73.3027 48.8622C72.7909 49.374 72.1768 49.7152 71.4944 49.9541C70.9826 51.5577 70.3343 53.1272 69.5836 54.6626C68.833 56.1639 67.9459 57.6311 66.9905 58.9959C66.5128 59.7124 66.0351 60.2925 65.6257 60.7701V66.4341C65.6257 67.4918 65.8987 68.4813 66.4446 69.3002C66.6834 69.7437 67.0246 70.119 67.4 70.4602C67.7753 70.8356 68.2188 71.1085 68.6624 71.3474L83.0952 78.5808C83.9823 78.9902 84.7671 79.5362 85.4836 80.1503C95.2078 72.0298 101.52 59.883 101.759 46.235C102.168 21.2591 82.3104 0.684716 57.3345 0.275276L57.3686 0.241161Z" fill="#007EE5"/>
<defs>
<clipPath id="clip0_0_45">
<rect width="36.8812" height="36.8812" fill="white" transform="translate(38.1625 276.012)"/>
</clipPath>
</defs>
</svg>
